<svg viewBox="0 0 320 320" xmlns="http://www.w3.org/2000/svg"><style>path,rect{fill:#000;} @media(prefers-color-scheme:dark){path,rect{fill:#fff;}}</style><rect x="20" y="140" width="40" height="40"/><rect x="260" y="140" width="40" height="40"/><rect x="140" y="20" width="40" height="40"/><rect x="140" y="260" width="40" height="40"/><rect x="240" y="57" width="23" height="23"/><rect x="240" y="240" width="23" height="23"/><rect x="57" y="240" width="23" height="23"/><rect x="57" y="57" width="23" height="23"/><path fill-rule="evenodd" clip-rule="evenodd" d="M57.2656 143.938C57 147.464 57 151.643 57 160C57 168.357 57 172.536 57.2656 176.062C60.7572 222.407 97.5934 259.243 143.938 262.734C147.464 263 151.643 263 160 263C168.357 263 172.536 263 176.062 262.734C222.407 259.243 259.243 222.407 262.734 176.062C263 172.536 263 168.357 263 160C263 151.643 263 147.464 262.734 143.938C259.243 97.5934 222.407 60.7572 176.062 57.2656C172.536 57 168.357 57 160 57C151.643 57 147.464 57 143.938 57.2656C97.5934 60.7572 60.7572 97.5934 57.2656 143.938ZM140 100H100V140H140V100Z"/></svg>