<svg viewBox="0 0 500 500" xmlns="http://www.w3.org/2000/svg"><path d="m448.45 225a200.1 200.1 0 0 0 -173.45-173.45v-51.55h-50v51.55a200.1 200.1 0 0 0 -173.45 173.45h-51.55v50h51.55a200.1 200.1 0 0 0 173.45 173.45v51.55h50v-51.55a200.1 200.1 0 0 0 173.45-173.45h51.55v-50zm-223.45-50a50 50 0 0 1 -50 50 50 50 0 0 1 -50-50 50 50 0 0 1 50-50 50 50 0 0 1 50 50z"/><path d="m50.36 50.36h50v50h-50z" transform="matrix(.70710678 -.70710678 .70710678 .70710678 -31.21 75.36)"/><path d="m409.64 50.36h50v50h-50z" transform="matrix(.70710678 -.70710678 .70710678 .70710678 74.02 329.41)"/><path d="m50.36 399.64h50v50h-50z" transform="matrix(.70710678 -.70710678 .70710678 .70710678 -278.2 177.66)"/><path d="m409.64 399.64h50v50h-50z" transform="matrix(.70710678 -.70710678 .70710678 .70710678 -172.96 431.72)"/></svg>