<svg xmlns="http://www.w3.org/2000/svg" viewBox="0 0 500 500"><title>no_mine</title><rect x="399.65" y="50.35" width="50" height="50" transform="translate(71.09 322.34) rotate(-45)"/><rect x="50.35" y="399.65" width="50" height="50" transform="translate(-278.2 177.66) rotate(-45)"/><rect x="225" y="-68.2" width="50" height="636.4" transform="translate(-103.55 250) rotate(-45)" style="fill:#f20c0c"/><path d="M448.45,225A200.1,200.1,0,0,0,275,51.55V0H225V51.55a199.64,199.64,0,0,0-76.58,26.16L422.29,351.58A199.64,199.64,0,0,0,448.45,275H500V225ZM139.64,210.35,77.71,148.42A199.64,199.64,0,0,0,51.55,225H0v50H51.55A200.1,200.1,0,0,0,225,448.45V500h50V448.45a199.64,199.64,0,0,0,76.58-26.16L139.65,210.36Z" transform="translate(0 0)"/></svg>